<?xml version="1.0" standalone="no"?>
<!DOCTYPE svg PUBLIC "-//W3C//DTD SVG 20010904//EN"
 "http://www.w3.org/TR/2001/REC-SVG-20010904/DTD/svg10.dtd">
<svg version="1.0" xmlns="http://www.w3.org/2000/svg"
 width="1500.000000pt" height="720.000000pt" viewBox="0 0 1500.000000 720.000000"
 preserveAspectRatio="xMidYMid meet">

<g transform="translate(0.000000,720.000000) scale(0.100000,-0.100000)"
fill="#000000" stroke="none">
<path d="M5995 5545 c-271 -50 -448 -144 -637 -339 -283 -292 -391 -800 -263
-1241 32 -109 98 -252 160 -345 49 -74 178 -205 264 -269 155 -116 355 -186
576 -201 332 -24 615 46 850 209 79 54 155 115 155 123 0 5 -78 100 -173 211
l-173 203 -60 -54 c-155 -143 -410 -189 -628 -114 -264 91 -417 323 -419 637
-1 250 94 443 276 559 102 65 165 81 322 81 128 0 146 -2 215 -28 81 -30 181
-86 249 -140 l44 -35 127 132 c185 192 245 257 245 266 0 22 -291 240 -320
240 -4 0 -30 11 -58 25 -29 13 -81 31 -117 40 -36 8 -78 20 -95 25 -97 31
-407 39 -540 15z"/>
<path d="M7250 4350 l0 -1140 280 0 280 0 0 1140 0 1140 -280 0 -280 0 0
-1140z"/>
<path d="M8750 4893 c-83 -13 -176 -35 -203 -47 -18 -8 -47 -19 -65 -25 -50
-16 -177 -98 -237 -152 -107 -99 -191 -237 -237 -394 -20 -70 -23 -101 -23
-255 0 -152 3 -185 23 -253 89 -310 324 -526 652 -602 100 -23 356 -24 452 -1
345 80 606 335 679 661 21 96 17 313 -9 411 -86 331 -342 576 -677 645 -84 17
-281 24 -355 12z m300 -524 c76 -36 112 -68 147 -136 77 -146 65 -353 -28
-466 -130 -158 -386 -170 -531 -25 -56 55 -84 114 -100 206 -32 187 59 370
215 432 76 30 220 24 297 -11z"/>
<path d="M12135 4893 c-111 -17 -168 -35 -290 -92 -207 -97 -374 -323 -426
-576 -27 -129 -22 -339 11 -453 40 -140 120 -271 232 -378 88 -84 150 -124
299 -188 181 -78 522 -79 692 -2 17 8 42 17 54 21 37 10 172 103 230 158 31
29 75 77 98 108 45 57 120 187 114 194 -3 2 -119 33 -259 68 l-255 65 -29 -44
c-58 -89 -175 -140 -305 -132 -125 8 -226 66 -281 162 -55 94 -111 86 569 86
l600 0 6 43 c10 65 -12 254 -40 352 -53 181 -148 325 -287 431 -31 24 -59 44
-62 44 -3 0 -22 11 -42 25 -20 14 -55 30 -78 37 -23 6 -46 15 -51 19 -6 4 -46
17 -90 29 -61 17 -115 23 -230 25 -82 2 -163 1 -180 -2z m265 -473 c96 -27
191 -114 206 -189 l7 -31 -311 0 c-171 0 -313 4 -316 8 -8 14 34 96 67 130 32
34 89 68 137 83 36 11 169 10 210 -1z"/>
<path d="M14103 4879 c-51 -20 -129 -85 -171 -144 l-21 -30 -1 73 0 72 -280 0
-280 0 0 -820 0 -820 279 0 279 0 4 448 c4 384 7 454 22 500 22 69 64 114 138
152 56 28 69 30 165 30 l103 0 0 280 0 280 -92 -1 c-68 0 -107 -5 -145 -20z"/>
<path d="M9740 4842 c0 -11 495 -1399 518 -1452 10 -25 29 -75 41 -112 l23
-68 283 0 283 0 15 43 c8 23 101 285 207 582 106 297 228 641 272 765 44 124
84 231 90 238 8 9 -49 12 -280 12 l-290 0 -11 -27 c-14 -37 -271 -755 -271
-759 0 -2 -4 -4 -10 -4 -5 0 -10 4 -10 10 0 9 -84 240 -232 643 l-51 137 -289
0 c-158 0 -288 -3 -288 -8z"/>
<path d="M5377 2458 c85 -200 163 -383 173 -408 l18 -45 73 0 73 0 177 405
178 405 -81 3 c-45 2 -84 -1 -88 -5 -4 -4 -60 -141 -124 -303 -65 -162 -121
-298 -124 -302 -4 -4 -61 132 -127 302 l-120 310 -91 0 -92 0 155 -362z"/>
<path d="M6360 2410 l0 -410 305 0 305 0 0 65 0 65 -230 0 -230 0 0 110 0 110
204 0 204 0 4 65 3 65 -205 2 -205 3 0 100 0 100 218 3 217 2 0 65 0 65 -295
0 -295 0 0 -410z"/>
<path d="M7320 2405 l0 -415 75 0 75 0 0 317 c0 248 3 314 12 305 7 -7 107
-148 223 -315 l211 -302 102 -3 102 -3 0 416 0 415 -80 0 -80 0 -2 -307 -3
-306 -179 254 c-99 140 -197 278 -218 307 l-39 52 -99 0 -100 0 0 -415z"/>
<path d="M8510 2410 l0 -410 305 0 305 0 0 65 0 65 -230 0 -230 0 0 110 0 110
206 2 206 3 2 62 1 63 -205 2 -205 3 0 100 0 100 218 3 217 2 0 65 0 65 -295
0 -295 0 0 -410z"/>
<path d="M9420 2755 l0 -65 230 0 c127 0 230 -3 230 -7 0 -5 -106 -131 -235
-282 l-235 -274 0 -64 0 -63 340 0 340 0 0 65 0 65 -239 2 -240 3 240 279 240
278 -3 62 -3 61 -332 3 -333 2 0 -65z"/>
<path d="M10420 2525 c0 -272 2 -298 20 -349 26 -68 86 -130 160 -165 50 -24
66 -26 180 -26 123 0 126 0 188 34 73 40 105 74 141 151 26 55 26 56 29 353
l4 297 -81 0 -81 0 0 -278 c0 -276 0 -278 -25 -328 -29 -59 -79 -92 -152 -101
-101 -11 -198 46 -222 132 -7 25 -11 143 -11 308 l0 267 -75 0 -75 0 0 -295z"/>
<path d="M11520 2410 l0 -410 305 0 305 0 0 65 0 65 -225 0 -225 0 0 110 0
110 203 2 202 3 3 63 3 62 -206 0 -205 0 0 105 0 105 215 0 215 0 0 65 0 65
-295 0 -295 0 0 -410z"/>
<path d="M12480 2410 l0 -410 265 0 265 0 0 65 0 65 -190 0 -190 0 0 345 0
345 -75 0 -75 0 0 -410z"/>
<path d="M13422 2413 c-106 -225 -192 -412 -192 -416 0 -4 38 -7 84 -7 l84 0
37 88 c21 48 42 93 48 100 7 9 55 12 199 10 l189 -3 42 -95 43 -95 87 -3 c48
-1 87 1 87 5 0 5 -85 190 -189 413 l-188 405 -70 3 -69 3 -192 -408z m327 62
c34 -83 61 -154 61 -158 0 -4 -61 -7 -136 -7 -105 0 -135 3 -131 13 63 162
132 316 138 310 4 -4 34 -76 68 -158z"/>
</g>
</svg>
